<?xml version="1.0" encoding="UTF-8" standalone="no"?>
<svg xmlns:rdf="http://www.w3.org/1999/02/22-rdf-syntax-ns#" xmlns="http://www.w3.org/2000/svg" height="945pt" width="959pt" version="1.1" xmlns:cc="http://creativecommons.org/ns#" xmlns:dc="http://purl.org/dc/elements/1.1/" viewBox="0 0 959 945">
<path d="m670.3 881.6c9.22-0.34 23.2 4.92 19.31 16.79-6.84 14.2-24.51 16.42-38.49 17.87-12.33 3.65-15.92-17.2-28.96-11.19-13.98 1.02-11.43 15.84-16.72 24.47-13.14 8.27-30.34 19.29-46.01 11.08-6.75-5.34-4.66-15.65 1.06-20.99 12.63-10.8 29.57-16.89 46.29-13.86 6.17 1.5 9.17-6.74 15.15-5.41 9.35 1.35 14.42-8.82 22.2-12.19 7.94-4.44 17.21-5.85 26.17-6.57m-0.95 5.17c-10.7 0.33-23.94 3.72-30.25 12.13 12.34-2.84 26.26-7.59 37.67-7.02-9.6 7.76-27.25 6.09-36.92 14.06 13.93 6.17 34.11 3.52 43.86-9.05 4.19-8.78-7.83-12.33-14.36-10.12m-79.63 23.95c-10.33 1.86-20.41 6.86-27.87 14.3-3.86 3.39-1.85 10.36 3.1 11.53 14.18 2.61 27.88-5.3 37.55-15.07 1.2-1.11 2.69-5.62-0.12-4.81-11.81 4.05-23.7 7.87-35.36 12.33-0.67-0.75-1.82-2.71-0.35-3.16 11.2-4.9 22.29-10.17 33.91-14.04-1.33-3.46-7.6-0.54-10.86-1.08zm-302.3-29.2c14.21 0.45 28.81 4.69 38.87 15.29 3.7 4.13 9.25 3.67 14.22 3.59 11.15 11.09 28.43 0.5 41.16 8.93 11.69 4.06 29.11 16.87 19.02 30.34-15.75 10.06-34.5-1.78-47.71-10.74-2.45-10.29-5.27-24.01-18.55-24.06-11.44-3.91-14.57 14.03-25.8 11.47-14.01-1.33-31.81-3.39-38.91-17.4-4.74-11.35 8.49-17.51 17.7-17.42m-7.31 5.16c-4.86 1.14-7.79 7.41-4.09 11.56 10.39 11.08 29.71 13.9 42.85 7.58-8.98-7.64-27.21-6.25-36.68-13.94 11.27-0.45 25.39 4.12 37.67 7.02-8.82-10.89-25.91-13.26-39.75-12.22m79.35 23.7c3.7 6.98 28.95 8.83 32.92 18.01-11.68-2.34-24.79-9.02-37.31-11.79 1.22 9.84 13.62 14.03 21.3 18.2 7.03 4.12 27.01 4.53 21.76-8.61-9.6-10.7-24.33-16.66-38.67-15.81zm258.2-83.9c5.09-1.37 10.29 2.24 12.37 6.74 10.12 21.02-8.53 51.93-32.66 45.82-13.98-4-30.28-16.02-27.36-32.28 5.54-14.31 22.68-4.87 31.82 0.14 2.21-8.46 6.37-18.12 15.83-20.42m0.28 6.09c-8.86 3.75-12.07 13.75-13.86 22.37-7.75-6.23-25.9-18.17-29.93-2.71 2.34 15.36 19.42 21.68 32.98 23.72-7.43-7.63-22.04-12.05-24.91-23.72 9.48 3.2 14.56 17.18 25.6 18.73 10.99-4.96 5.33-25.09 11.97-30.55 3.44 10.19-3.26 22.56-6.84 32.61 8.74-4.55 12.41-14.52 15.32-23.29 1.35-6.98-1.13-18.56-10.33-17.16zm-281.2-5.99c12.52-2.18 17.16 10.92 20.58 20.04 9.12-2.7 21.21-13.28 29.7-3.57 9.23 17.33-12.35 33.74-27.7 36.55-26.11 5.15-46.55-38.82-22.58-53.02m1.52 6.06c-16.01 8.43-4.41 33.25 7.81 40.38-3.31-10.09-11.19-23.18-6.06-32.85 5.94 7.27 0.28 25.46 11.16 30.78 9.22-2.87 16.24-11.18 22.64-18.36 1.77-0.99 3.98-0.44 2.83 1.92-5.9 9.37-16.59 15.02-24.86 21.3 13.69-1.72 30.59-8.25 33.14-23.51-4.22-15.9-22.13-3.25-29.98 2.65-1.87-8.76-5.93-22.51-16.68-22.31zm550.8-147.1c5-0.08 9.96 3.77 11.36 8.5 1.23 17.84-14.06 31.97-27.81 40.51-10.53-2.53-24.4-1.75-27.28 10.9-5.81 10.04 10.06 17.77 2.73 27.36-5.05 13.57-13.46 28.77-28.91 31.66-11.97-1.72-13.75-16.72-8.72-25.77 4.65-13.77 15.21-24.73 28.05-31.16 4.41-6.11 4.96-14.33 13.3-17.46 2.7-19.69 16.37-41.15 37.28-44.54m-4.17 5.04c-12.85 6.18-23.49 18.57-26 32.8 9.18-7.43 16.28-22.01 27.05-28.02-4.16 12.36-18.08 20.81-21.77 33.53 13.52-1.61 23.31-14.37 29.11-25.57 3.4-5.64-0.31-16.7-8.39-12.74m-51.31 65.85c-12.2 8.46-25.24 25.57-19.09 40.24 17.89 4.54 31.05-24.11 26.53-37.59-7.74 8.25-14.09 19.5-20.82 29.18-0.33 1.83-4 2.42-3.1-0.06 4.77-11.45 12.6-21.51 18.61-32.38-0.53 0.15-1.6 0.46-2.13 0.61zm-764.5-71.1c13.64 0.51 23.39 12.27 30.71 22.64 6.31 8.04 3.12 20.91 12.53 26.38 6.12 2.62 3.46 11.71 9.84 14.29 14.4 6.72 24.13 20.78 28.29 35.8 2.77 8.62-1.92 19.26-11.47 19.84-17.73-4.74-27.48-24.27-29.86-40.78 7.67-8.7 6.76-23.26-4.04-29.15-6.89-5.24-15.45 3.11-22.28-1.39-10.36-9.45-23.79-19.52-24.34-34.88-1.57-6.45 4.58-12.17 10.62-12.75m-0.53 4.79c-12.52 14.55 11.35 35.62 26.03 38.64-3.91-12.61-17.5-21.24-21.71-33.59 11 6.03 17.85 20.74 27.05 28.11-3.06-14.5-15.38-32.26-31.37-33.16m54.59 65.54c6.09 10.59 13.03 20.69 18.52 31.61 0.69 1.84-0.29 3.07-2.18 2.14-6.9-10.22-13.61-21.87-21.64-30.46-4.76 11.64 5.11 27.29 14.33 35.65 4.04 4.06 13.29 4.78 14.58-2.17-1.22-14.67-9.92-30.49-23.61-36.77zm682.2-81.28c18.08-0.34 24.69 21.38 24.44 36.35-1.93 26-44.2 33.72-56.95 11.98-4.54-15.09 13.87-19.08 24.84-19.16-2.47-9.72-5.9-26.44 7.67-29.17m1.39 5.9c-11.35 4.41-5.91 21.3-0.62 29.39-9.61-3.96-33.19 0.01-26.67 14.42 10.23 9.96 28.47 7.28 39.01-0.64-7.3-1.72-25.74 3.99-32.39-4.74 9.55-0.86 22.15 4.79 32.58 0.31 0.46-10.48-5.01-20.1-10.71-28.51-0.11-1.32 0.31-4.82 2.17-2.96 7.49 8.15 9.82 19.95 13.07 29.93 3.41-10.82 1.39-37.81-16.44-37.2zm-657.4-5.98c15.94-2.06 16.33 19.35 11.65 29.34 11.02-0.13 29.38 4.06 24.84 19.08-11.08 19.03-43.91 15.55-54.41-2.55-6.07-15.78-0.36-40.6 17.92-45.87m-2.75 5.94c-13.03 6.9-14.32 26.6-11.07 37.31 3.32-9.8 5.4-21.91 13.04-30 1.85-1.86 2.27 1.64 2.17 2.96-5.54 8.4-11.38 17.93-10.62 28.35 10.13 5.09 23-1.28 32.49-0.15-6.69 8.95-24.87 2.67-32.39 4.78 10.56 8.31 29.63 10.73 39.36-0.08 5.13-14.18-17.42-17.53-26.94-13.6 6.48-8.97 10.64-32.4-6.04-29.57zm726.5-239.8c19.59 0.28 37.89 21.92 31.8 40.52-7.04 14.43-25.41 30.01-41.9 20.79-11.33-10.24 1.78-22.79 9.73-29.79-14.69-5.35-21.34-32.86 0.37-31.52m-3.45 4.46c-13.5 8.71 3.43 23.8 12.58 27.2-8.27 3.85-26.54 18.47-12.59 27.71 15.16 2.08 26.82-11.47 31.94-24.1-9.3 6.28-17.71 16.08-29.61 17.04 3.72-9.46 22.74-8.96 26.44-20.73-4.72-11.05-22.7-10.83-26.44-20.07 11.8 1.01 20.43 10.65 29.58 17.04-5.08-12.6-16.85-26.11-31.9-24.09zm-788.3-4.52c8.05-1.87 19.98 2.47 18.36 12.5 0.27 9.21-9.07 13.43-13.92 19.86 9.67 5.72 21.25 21.14 8.47 30.04-22.18 7.9-46.94-17.15-40.95-38.38 5.56-11.17 15.49-21.31 28.04-24.02m-0.84 5.02c-11.27 2.66-19.35 13.4-23.57 23.59 9.29-6.29 17.71-16.08 29.61-17.04-3.72 9.46-22.74 8.95-26.44 20.73 4.72 11.04 22.7 10.83 26.44 20.07-11.8-1.01-20.43-10.65-29.58-17.04 5.08 12.6 16.84 26.11 31.9 24.09 13.93-9.34-4.46-23.52-12.81-27.87 14.55-1.67 28.81-30.28 4.45-26.53zm859.1-43.2c3.78-0.3 9.34-0.85 11.58 3.16 9.86 14.36 6.02 33.79-0.38 48.56-10.89 2.64-19.37 12.26-15.28 24 0.76 8.93 11.44 8.68 16.26 13.94 4.25 15.87 10.25 35.18-2.06 49.17-8.41 5.06-18.05-1.84-21.16-10.09-5.84-15.12-5.24-32.74 2.63-47.02 0-7.62-3.14-14.23 0.56-21.86-9.47-18.29-12.48-48 7.85-59.86m0.46 4.92c-13.66 8.1-11.14 31.3-7.24 44.88 4.91-9.91-0.14-29.85 6.78-38.05 3.09 11.44-3.17 27.27 1.22 39.64 11.2-10.24 17.17-40.89-0.76-46.47m0.75 83.9c-4.34 12.38 2.08 28.26-1.22 39.62-7.34-7.98-1.89-28-6.75-38-5.5 13.69-3.5 29.82 2.73 42.66 7.11 6.63 14.41-2.9 14.96-10.07 0.66-11.2-0.62-26.9-9.72-34.21zm-927.5-88.8c23.12 1.67 23.56 35.56 16.97 52.07-6.74 9.04 1.81 18.69-3.47 28.26 8.57 16.93 11.38 40.19-1.66 55.64-5.18 6.75-17.61 6.17-20.08-2.74-7.07-13-2.34-27.41 0.46-40.79 1.94-8.15 13.93-6.05 16.51-13.71 2.61-7.04 2.95-17.8-4.41-22.06-7.55-2.11-14.03-6.92-13.22-15.67-4.02-13.11-6.32-35.08 8.9-41m2.93 4.83c-14.81 10.11-9.06 34.27 0.79 46.66 6.52-10.95-3.1-30.3 2.75-39.78 4.92 9.87 2.66 26.44 5.19 37.69 6.1-11.24 7.98-40.79-8.73-44.57m0.78 83.86c-9.04 10.89-11.76 27.38-7.05 40.68 1.82 6.04 9.42 7.93 13.51 3.26 5.65-12.98 7.42-28.61 2.26-42.24-4.92 9.91 0.14 29.84-6.78 38.05-3.4-11.38 4.06-28.59-1.94-39.75zm773.5-280.7c11.72-1.44 27.93-0.14 34.04 11.68 13.17 15.02 0.18 54.49-23.68 46.95-8.33-6.82-5.85-18.97-3.21-27.89-8.81-1.06-20.62-0.96-24.79-10.47-3.94-10.98 7.93-19.45 17.64-20.27m2.65 3.85c-6.93 1.08-17.35 5.06-14.81 13.89 5.51 8.69 18.38 9.9 27.45 6.67-4.67 8.67-10.68 25.86 1.54 30.01 17.41-1.04 19.37-26.42 15.79-37.59-3.32 9.8-5.41 21.91-13.04 30-1.85 1.85-2.28-1.65-2.17-2.96 5.54-8.4 11.38-17.94 10.62-28.35-10.04-5.63-24.27 2.4-32.59-0.65 9.06-6.9 22.37-3.28 32.86-3.26-5.92-7.08-17.08-7.18-25.65-7.76zm-637.7-3.9c12.14-3.04 33 3.18 30.73 18.81-3.07 10.78-16.13 10.89-25.25 12.05 2.01 9.44 5.94 23.52-5.34 28.71-16.41 3.35-25.93-15.79-26.35-29.6-3.37-15.55 10.87-29.93 26.21-29.97m6.68 3.92c-7.28 1.88-16.49 1.08-21.98 7.04 7.29 1.72 25.74-3.99 32.39 4.74-9.56 0.86-22.15-4.79-32.58-0.31-0.46 10.47 5.01 20.1 10.71 28.51 0.1 1.31-0.32 4.81-2.17 2.96-7.98-8.16-9.37-20.89-13.75-30.38-1.53 13.31-1.27 31.14 12.46 38.04 16.41 1.02 11.3-20.8 5.55-30.02 9.03 3.12 21.99 1.91 27.48-6.74 2.55-9.81-10.54-14.36-18.11-13.84zm656.8-73.83c18.19 4 28.17 24.24 30.58 40.82-7.67 8.7-6.76 23.26 4.04 29.15 6.88 5.22 15.45-3.11 22.28 1.39 10.36 9.45 23.78 19.52 24.34 34.88 1.94 8.83-9.27 15.55-16.91 11.82-18.22-7.34-28.85-25.86-32.31-44.19-9.74-3.6-7.6-16.1-17.02-19.6-13.22-6.88-21.77-20.38-25.75-34.39-2.57-8.5 1.51-18.52 10.75-19.88m-1.65 6.69c-4.63 0.48-6.84 6.07-4.99 10.12 3.19 12.73 10.76 26.42 23.2 31.85-6.09-10.59-13.03-20.69-18.52-31.61-0.7-1.85 0.28-3.08 2.18-2.14 6.9 10.21 13.6 21.86 21.64 30.46 4.51-13.54-7.6-36.91-23.51-38.68m46.77 68.87c3.9 12.6 17.49 21.24 21.71 33.59-11-6.03-17.85-20.75-27.05-28.11 2.33 14.54 13.53 26.87 26.51 33.28 7.63 2.58 11.22-6.93 8.12-12.46-5.5-11.75-15.83-24-29.29-26.3zm-725.2-75.5c12.4 0.84 14.7 16.55 9.43 25.73-4.65 13.77-15.21 24.73-28.05 31.16-4.42 6.11-4.97 14.33-13.3 17.46-2.35 18.38-13.79 35.81-31.04 43.35-8.03 4.41-20.01-2.78-17.5-12.2 0.73-14.93 13.82-24.35 23.64-33.79 7.24-5.51 17.07 4.21 23.98-2.68 10.01-6.12 10.15-20.04 3.03-28.45 2.24-16.35 12.08-36.06 29.81-40.58m-0.76 6.73c-14.03 5.19-24.76 25.4-20.4 38.62 8.05-8.64 14.63-20.34 21.67-30.43 1.79-1.14 2.87 0.32 2.15 2.08-5.37 10.99-12.43 21.02-18.51 31.61 12.68-5.53 20.24-19.58 23.42-32.55 2.09-5.38-3.01-10.94-8.33-9.33m-45.94 69.1c-12.44 3.35-21.71 14.8-27 25.96-3 5.62 0.96 15.94 8.67 12.06 12.85-6.18 23.49-18.58 26-32.8-9.18 7.42-16.28 22.01-27.05 28.02 2.93-9.28 12.03-16.05 16.96-24.6 1.26-1.59 8.33-9.81 2.42-8.64zm507.2-151c24.32-3.75 42.08 29.83 28.28 49.54-9.14 9.6-23.59-1.75-24.32-12.82-1.87-8.51-9.64 0.94-13.88 2.01-7.6 4.3-20.31 1.49-20.28-8.88 0.16-16.19 16.14-26.41 30.2-29.85m6.73 3.9c-13.45 1.84-29.85 8.43-32.33 23.4 4.22 15.9 22.13 3.24 29.98-2.65 1.36 9.91 9.83 29.39 21.83 19.52 6.97-13.15-1.45-30.09-12.96-37.59 3.31 10.08 11.19 23.18 6.06 32.85-5.73-7.32-0.64-24.34-10.41-30.63-11.45 0.72-16.79 15.27-26.38 18.57 2.25-11.23 19.33-17.52 24.21-23.47zm-254.5-3.84c17.1-1.34 40.1 13.43 37.1 32.78-5.54 14.31-22.68 4.86-31.82-0.14-1.45 11.32-14.17 27.38-25.64 17.36-13.05-17.2-0.54-47.13 20.33-50m0.01 3.59c7.43 7.63 22.04 12.05 24.91 23.72-9.48-3.21-14.56-17.18-25.6-18.73-11 4.96-5.33 25.08-11.97 30.55-3.44-10.2 3.26-22.57 6.84-32.61-11.87 7.41-20.49 25.42-12.3 38.19 11.75 8.48 19.86-10.5 21.17-20.11 7.75 6.23 25.9 18.17 29.93 2.71-2.34-15.36-19.43-21.68-32.98-23.72zm93.9-48.72c7.6-1.08 18.48 4.47 14.05 13.3-11.46 13.49-31.39 22.19-48.92 16.17-7.69-4.65-14.76 3.82-23.02 1.52 18.75 7.03 42.91 12.31 63.79 5.68 2.02-13.46 15.66-20.27 27.44-23.76 12.23 2.94 25.77 10.1 28.24 23.68 20.83 6.6 45.11 1.58 63.71-5.62-8.39 2.15-15.91-5.96-23.77-1.14-17.31 5.37-35.97-3.23-47.78-15.87-4.1-6.44 1.91-14.03 9.22-13.74 14.7-0.93 30.2 3.49 41.32 13.38 7.07 18.34 32.31 13.28 48.1 14.07 30.53-5.22 45.57 30.13 74.02 32.23 16.76-10.12 38.62-0.33 51.44 12.12 4.92 3.77 2.43 11.06-2.08 13.91-16.92 2.82-37.2-0.02-48.07-14.78-3.22-9.12-14.63-8.24-21.51-13.47 13.01 16.59 27.94 35.03 48.94 41.81 10.72-8.98 26.18-7.75 37.97-1.74 6.45 10.13 13.52 22.74 7.47 34.91 12.72 16.97 34.83 26.29 54.16 33.28-5.24-3.88-9.29-16.38-18.81-15.88-17.17-5.82-26.31-24.26-28.57-41.16 1.59-6.9 9.27-9.04 14.97-5.44 15.38 9.28 29.1 26.71 25.22 45.67 9.46 15.93 25.87 25.2 40.57 35.6 14.98 12.38 11.62 33.87 22.2 48.88 3.17 7.23 6.76 16.62 16.51 15.26 15.81 7 26.08 23.79 27.99 40.71 0.59 5.23-5.02 8.07-9.41 8.63-18.08-7.87-33.47-26.16-30.8-46.85-3.58-4.9-5.64-11.99-10.26-15.58 2.19 19.62 3.01 40.12 13.15 57.64 1.37 6.52 9.03 1.93 13.05 4.79 9.42 2.59 14.79 11.34 21.24 17.94 0.42 12.58-2.02 27.64-14.37 34.03-0.08 22.5 13.23 41.3 24.15 59.83-0.12-8.03 0.45-18.54-5.76-25.01-9.3-14.07-7.61-33.2 0.13-47.6 1.91-4.91 10.72-7.26 13.39-1.89 9.6 14.47 10.15 34.92 2.11 50.2-7.24 3.46-6.93 12.09-5.3 18.97 0.73 21.12 18.96 40.03 9.74 61.62-5.16 16.37-19.72 40.78-3.3 54.13 6.3 15.35 6.38 34.36-3.27 48.35-2.85 5.2-11.48 3.12-13.36-1.93-7.21-13.96-9.9-32.5-0.89-46.26 6.75-6.79 5.7-17.88 6.52-26.33-11.18 18.41-23.91 37.45-24.13 59.84 12.42 6.12 13.66 21.03 14.44 33.23-7.29 10.28-17.8 21.59-31.85 20-12.71 17.41-13.08 40.34-15.68 61.13 5.3-6.1 12.08-14.91 10.24-23.9 1.24-17.73 15.66-32.22 31.49-38.48 8.22 0.7 11.23 9.82 7.4 16.61-4.82 15.75-16.42 32.2-34.04 33.97-17.7 16.41-14.26 44.38-30.28 61.91-14.68 11.14-32.18 20.06-41.54 36.65 4.18 18.31-9.66 35.07-23.92 45-6.08 2.99-14.88 4.37-16.43-4.92 2.61-18.25 13.86-39.87 34.27-41.99 3.67-5.8 9.82-10.02 13.48-15.5-19.64 8.11-41.58 16.29-54.43 33.83 6.03 12.33-1.12 25.34-8.03 35.32-11.91 5.05-27.09 6.89-37.47-2.23-20.95 7.02-35.92 25.18-48.91 41.85 5.81-3.58 12.58-5.42 18.49-8.49 8.44-17.58 29.99-22.54 47.7-20.3 6.9-0.4 11.28 10.15 5.47 14.44-12.78 12.63-35.6 22.53-52 11.91-29.53 3.88-45.41 40.4-78.19 32.32-14.46 0.46-37.81-2.85-43.35 14.2-11.07 10.02-26.64 14.23-41.33 13.38-7.7 0.45-13.62-8.09-8.78-14.35 12.05-12.39 30.93-20.93 48.13-14.9 7.69 4.65 14.76-3.82 23.02-1.52-18.76-7.03-42.91-12.31-63.79-5.68-2.02 13.46-15.66 20.27-27.44 23.76-12.23-2.94-25.77-10.11-28.24-23.68-20.83-6.6-45.11-1.58-63.71 5.62 8.38-2.16 15.91 5.96 23.77 1.14 17.3-5.37 35.97 3.23 47.78 15.87 4.1 6.44-1.92 14.02-9.22 13.74-14.7 0.92-30.2-3.49-41.32-13.38-7.08-18.34-32.31-13.29-48.1-14.07-30.53 5.22-45.57-30.13-74.02-32.23-16.76 10.12-38.62 0.33-51.44-12.12-4.93-3.77-2.43-11.07 2.08-13.91 16.92-2.82 37.2 0.02 48.07 14.78 3.22 9.12 14.62 8.23 21.51 13.47-13.01-16.59-27.94-35.03-48.94-41.81-10.72 8.98-26.18 7.75-37.97 1.74-6.45-10.13-13.52-22.74-7.47-34.91-12.72-16.97-34.83-26.29-54.16-33.28 5.23 3.87 9.29 16.38 18.81 15.88 17.17 5.82 26.31 24.26 28.57 41.16-1.59 6.9-9.27 9.04-14.97 5.44-15.38-9.28-29.1-26.71-25.22-45.67-9.46-15.93-25.87-25.2-40.57-35.6-14.98-12.38-11.63-33.88-22.2-48.88-3.17-7.24-6.77-16.63-16.51-15.26-15.81-7-26.08-23.79-27.99-40.71-0.59-5.24 5.02-8.07 9.41-8.63 18.08 7.87 33.47 26.15 30.8 46.85 3.58 4.89 5.64 11.99 10.26 15.58-2.19-19.62-3.01-40.12-13.15-57.64-1.37-6.52-9.04-1.93-13.05-4.79-9.42-2.59-14.79-11.34-21.24-17.94-0.42-12.58 2.02-27.64 14.37-34.03 0.08-22.5-13.23-41.3-24.15-59.83 0.11 8.02-0.46 18.53 5.76 25.01 9.3 14.07 7.6 33.19-0.13 47.6-1.91 4.91-10.73 7.25-13.39 1.89-9.6-14.47-10.15-34.92-2.11-50.2 7.24-3.46 6.92-12.1 5.3-18.97-0.73-21.12-18.96-40.03-9.74-61.62 5.15-16.37 19.72-40.78 3.3-54.13-6.3-15.35-6.39-34.36 3.27-48.35 2.84-5.21 11.48-3.12 13.36 1.93 7.21 13.96 9.89 32.5 0.89 46.26-6.76 6.78-5.7 17.88-6.52 26.33 11.24-18.3 23.97-37.4 24.19-59.8-12.42-6.1-13.66-21-14.44-33.2 7.29-10.28 17.8-21.6 31.85-20 12.71-17.41 13.08-40.34 15.68-61.13-5.3 6.1-12.08 14.9-10.24 23.9-1.24 17.73-15.66 32.22-31.49 38.48-7.84-0.7-11.2-9.16-7.68-15.91 4.2-13.73 12.85-27.19 26.4-33.05 13.56 1.06 15.27-14.93 21.27-23.46 5.37-13.85 5.91-30.6 18.01-41 14.57-10.52 31.29-19.65 40.46-35.72-4.18-18.31 9.66-35.07 23.92-45 6.07-2.99 14.88-4.38 16.43 4.92-2.62 18.25-13.86 39.87-34.27 41.99-3.68 5.79-9.82 10.02-13.48 15.5 19.64-8.12 41.58-16.29 54.43-33.83-6.03-12.33 1.12-25.35 8.03-35.32 11.9-5.05 27.09-6.89 37.47 2.23 20.95-7.02 35.92-25.18 48.91-41.85-5.77 3.17-11.73 5.85-17.99 7.95-9.19 18.88-32.76 23.9-51.67 20.26-3.79-2.59-6.93-9-2.9-12.77 11.39-12.71 29.32-19.4 46.25-16.91 6.62 7.92 16.12 1 23.42-2.42 18.26-7.3 29.76-29.07 51.91-26.22 16.91-1 45.65 5.69 53.35-14.47 9.98-8.79 23.26-12.56 36.36-13.1m-1.58 5.15c-12.44 1.37-28.28 5.42-33.97 17.36 12.16-0.3 22.88-6.57 34.51-8.9-5.2 8.19-20.56 9.1-28.43 12.7 12.44 3.22 28.84-3.55 37.54-14.09 0.65-4.87-5.32-8.26-9.65-7.07m69.94 0c-3.9-0.53-9.97 2.4-8.85 7.06 8.58 10.58 24.9 17.28 37.45 14.13-7.57-3.5-19.24-4.68-27.21-10.24-2.55-0.6-1.7-6.45 2.6-1.76 9.98 3.52 19.95 7.49 30.64 8.18-5.84-11.84-21.99-16.65-34.63-17.37m-36.66 14.01c-7.67 2.19-16.71 6.09-20.32 13.55 4.23 4.53 11.88-0.93 16.82-2.17 8.99-6.83 19.18 8.87 27.87 2.18-4.2-8.32-14.8-13.75-24.1-13.69m-127.9 13.93c-25.8 4.09-38.59 30.53-43.14 52.96 19.92 15.38 8.06 43.56-3.62 60.41-4.03 2.33-8.47 6.97-13.42 4.01-13.25-10.65-8.21-30.7-2.51-43.92 3.85-5.35 5.05-15.85 12.9-16.6 3.74-7.58 5.45-16.11 8.28-24.06-19.01 17.09-37.85 38.46-43.67 64.24 11.72 6.57 10.14 23.25 5.32 33.36-11.61 3.19-27.18-3.15-30.22-15.72-26.06-1.26-52.8 8.65-74.25 22.14 6.76-0.45 21.9 3.42 28.63-4.36 18.66-6.24 53.11-8.27 57.55 16.51-16.29 17.77-57.38 17.79-67.03-8.01-19.94-0.25-42.6-0.15-56.89 16.14-17.94 18.4-11.96 46.6-3.43 67.38 27.41 1.26 39.94 40.3 28.01 61.54-24.47 3.2-32.3-28.72-33.82-47.46 5.26-10-1.49-22.82-5.11-30.78-4.38 25.24-7.25 52.66 2.59 77.01 13.93-1.85 22.25 12.78 24.83 24.47-9.08 6.63-24.38 14.63-33.7 4.28-22.67 14.13-37.01 38.11-47.98 61.83 7.48-6.31 20.62-9.68 21.14-20.59 11.15-15.25 40.22-39.02 56.63-18.99-5.01 23.91-36.22 45.95-59.61 32.03-16.37 10.69-33.92 24.62-36.32 45.5-3.64 25.6 16.96 45.57 37 56.84 23.31-13.97 54.81 9.18 58.65 32.8-17.68 18.31-44.84-4.11-56.34-19.64 0.15-11.41-14.15-13.52-21.06-20.67 10.6 23.89 25.08 47.83 47.87 61.84 9.4-10.37 24.62-2.24 33.79 4.24-2.68 11.7-10.9 26.42-24.91 24.56-10.27 24.31-6.54 51.72-2.7 77.04 4-8.14 10.28-20.57 5.29-30.71 1.55-18.58 9.59-52.09 34.3-47.1 10.66 21.4-1.15 59.82-28.47 61.1-9.78 21.07-14.25 50.66 4.75 68.94 14.59 14.45 37.16 15.9 55.93 13.9 8.74-23.75 40-21.8 59.41-14.38 3.66 2.89 9.87 6.55 6.42 12.03-10.55 20.37-38.98 16.61-57.51 11.24-6.28-7.79-21.63-3.32-27.91-4.09 21.72 13.34 48.45 24.43 74.87 21.84 1.66-12.92 18.68-18.31 29.57-15.41 5.39 10.04 6.24 26.75-5.28 33.35 5.72 25.79 24.66 47.06 43.64 64.26-3.82-8.89-3.11-22.51-12.9-26.03-10.12-14.93-19.19-35.62-10.68-53.1 6.06-12.76 21.19-2.5 23.6 7.25 9.51 15.45 15.1 39.2-1.63 51.7 4.53 21.01 15.58 46.09 39.12 51.98 22.54 7.44 41.11-8.24 59.03-18.88-8.49-27.6 25.19-50.21 49.22-46.83 7.58 10.67-0.96 24.79-9.94 32.08-9.31 7.48-21.24 17.15-33.4 14.69-6.7 4.48-12.75 9.95-19.8 13.97 25.87-2.38 54.23-8.82 73.95-26.73-6.98-11.87 5.74-23.46 14.48-30.48 9.3 6.01 22.1 18.65 15.16 30.48 19.7 17.94 47.87 24.34 73.83 26.77-6.43-4.06-12.46-8.67-18.45-13.33-18.73 0.15-38.69-14.4-46.79-32.02-0.67-5.72-2.33-16.47 6.23-16.36 22.95 0.94 53.58 21.09 45.2 47.77 15.84 9.21 30.52 22.92 50.44 20.29 28.04-1.13 43.33-29.58 47.72-53.4-19.92-15.38-8.06-43.56 3.62-60.41 4.03-2.33 8.46-6.98 13.42-4.01 13.25 10.65 8.2 30.7 2.51 43.92-3.85 5.34-5.05 15.85-12.9 16.6-3.74 7.59-5.46 16.11-8.28 24.06 19.01-17.09 37.85-38.46 43.67-64.24-11.72-6.57-10.15-23.25-5.32-33.36 11.61-3.2 27.18 3.15 30.22 15.72 26.06 1.26 52.8-8.65 74.25-22.14-6.77 0.45-21.9-3.42-28.63 4.36-18.67 6.24-53.11 8.27-57.55-16.51 16.29-17.77 57.38-17.79 67.03 8.01 19.94 0.25 42.6 0.15 56.89-16.14 17.94-18.4 11.96-46.6 3.43-67.38-27.41-1.27-39.94-40.31-28.01-61.54 24.46-3.2 32.3 28.72 33.82 47.46-5.26 10 1.49 22.82 5.11 30.78 4.38-25.24 7.25-52.66-2.59-77.01-13.93 1.85-22.25-12.79-24.83-24.47 9.08-6.63 24.38-14.63 33.7-4.28 22.67-14.13 37.01-38.11 47.98-61.83-7.04 6.27-20.55 9.3-20.78 19.96-11.16 14.5-28.26 29.73-47.91 26.73-14.74-2.33-7.8-19.48 0.29-25.27 11.81-13.78 32.39-25.08 49.57-13.98 16.82-9.58 34.46-24.62 36.99-45.39 3.64-25.6-16.96-45.57-37-56.84-23.31 13.97-54.81-9.18-58.65-32.8 17.68-18.31 44.84 4.11 56.34 19.64-0.15 11.41 14.15 13.52 21.06 20.67-10.6-23.89-25.08-47.84-47.87-61.84-9.4 10.36-24.62 2.24-33.79-4.24 2.68-11.7 10.9-26.43 24.91-24.56 10.27-24.31 6.54-51.72 2.7-77.04-4 8.14-10.28 20.57-5.29 30.71-1.55 18.58-9.59 52.09-34.3 47.1-10.66-21.4 1.15-59.83 28.47-61.1 9.78-21.07 14.25-50.66-4.75-68.94-14.59-14.45-37.16-15.91-55.93-13.9-8.74 23.75-40 21.8-59.41 14.38-3.66-2.9-9.87-6.56-6.42-12.03 10.55-20.37 38.97-16.61 57.51-11.24 6.28 7.79 21.62 3.31 27.91 4.09-21.72-13.34-48.45-24.43-74.87-21.84-1.66 12.92-18.68 18.3-29.57 15.41-5.39-10.04-6.24-26.75 5.28-33.35-5.72-25.79-24.66-47.06-43.64-64.26 3.82 8.89 3.11 22.5 12.9 26.03 10.12 14.93 19.19 35.62 10.68 53.1-6.06 12.76-21.19 2.5-23.6-7.25-9.52-15.45-15.11-39.21 1.63-51.7-4.1-21.2-15.2-46.27-38.7-52.16-22.6-7.44-41.1 8.24-59 18.88 8.49 27.6-25.19 50.21-49.22 46.83-7.58-10.67 0.96-24.79 9.94-32.08 9.31-7.48 21.24-17.16 33.4-14.69 6.7-4.48 12.74-9.95 19.8-13.97-25.87 2.38-54.24 8.82-73.95 26.73 6.98 11.86-5.74 23.45-14.48 30.48-9.3-6.01-22.11-18.65-15.16-30.48-19.7-17.94-47.87-24.34-73.83-26.77 6.43 4.06 12.46 8.67 18.45 13.33 18.73-0.16 38.69 14.4 46.79 32.02 0.67 5.71 2.33 16.46-6.23 16.36-22.8-1-53.4-20.7-45.4-47.07-15.5-11.17-33.7-25.07-55-20.57m127.9-0.05c-5.01 1.84-9.66 4.81-15.24 4.83 0.27 4.72 9.55 1.25 12.69 1.41 7.07-1.98 16.69 3.6 21.74-1.33-6.67-0.74-12.42-5.37-19.19-4.91m-24.1 7.24c-5.47 2.71-11.65 2.36-17.56 2.95 27.86 10.34 59.29 9.95 87.26 0.23-14.89-7.52-28.67 4.26-43.97-1.12-8.63 3.13-17.57 1.68-25.73-2.06m1.83 11.39c10.99 16.14 37.5 16.13 48.48 0-15.9 4.82-32.57 4.71-48.48 0m-40.2 5.07c9.7 6.87 22.07 15.77 27.68 27.64-12.7-5.34-18.3-23.78-34.1-24.67-4.67 6.51 3.22 12.48 7.11 17.19 7.44 9.72 22.81 24.54 35.06 16.34 2.91-19.11-19.74-32.13-35.69-36.55m127.4 0.41c-14.62 4.22-28.91 13.77-34.94 28.24-2.24 5 1.54 11.66 7.22 10.77 12.45-2.29 22.87-10.61 29.88-20.87 4.17-3.75 10.02-9.77 5.79-15.57-15.56 1.24-21.87 18.95-34.16 24.66 2.87-7.83 10.84-13.12 15.85-19.66 2.18-1.72 15.02-6.55 10.36-7.57m-270.7 4.04c-11.59 1.76-31.05 4.68-31.47 19.13 13.08 4.87 31.99 0.89 40.65-10.79-9.67 4.68-20.15 8.17-31.01 8.71 7.43-8.44 25.79-5.69 32.89-15.58-3.54-1.15-7.33-1.92-11.06-1.47m412-0.01c-3.81-0.6-11.11 2.17-4.63 4.33 8.47 7.15 23.31 4.83 29.91 12.73-10.82-0.73-21.34-3.95-30.98-8.72 8.86 11.58 27.19 15.59 40.62 10.81-0.9-15.45-22.4-18.29-34.9-19.15m-209.1 6.92c1.91 5.08 7.81 5.08 9.72 0-3.24 0.17-6.49 0.17-9.72 0m-6.49 1.39c-3.8 9.21 6.99 14.22 11.38 20.69 4.18-6.4 15.18-11.48 11.32-20.69-5 0.28-7.72 5.19-11.69 6.99-3.37-2.78-6.38-6.44-11.01-6.99m-162 23.42c-10.6 9.63-8.06 25.69-11.41 38.38-3.65 3.74-2.33-4.8-1.84-7.05-0.62-10.61 3.3-19.97 7.2-29.44-11.66 10.07-16.99 29.15-13.18 44.48 0.68 6.26 8.47 7.85 12.28 3.66 8.93-9.22 11.85-22.59 11.6-35.07 1.61-5.21 1.79-13.51-4.65-14.96m346-0.15c-5.85 2.86-5.39 9.81-3.95 15.12 0.02 13.1 2.76 28.37 13.83 36.64 9.15 4.26 12.6-9.59 11.57-15.89-1.21-11.87-4.99-26.56-14.68-33.82 5.33 11.39 9.19 25.69 6.93 37.63-7.32-10.4-0.43-31.33-13.7-39.68m-378.7 3.32c-6.95 4.81-15.87 6.99-20.09 14.89-15.36 13.64-35.34 21-48.99 36.01 25.15-7.11 47.13-23.21 64.19-42.77 2.25-1.75 6.09-6.87 4.89-8.13m411.4-0.32c15.64 24.47 41.93 42.76 69.75 51.22-3.28-3.94-8.54-6.92-11.45-11.65-22.68-8.3-36.98-28.91-58.3-39.57m-448.6 2.35c-14.56-0.68-20.35 14.49-22.07 26.27 3.5 6.14 8.43-3.61 10.97-6.55 1.74-14.72 21.64-7.29 26.45-18.15-4.83-2.03-10.22-1.93-15.35-1.57m477.6 0.14c-15.43 1.35 2.66 9.39 8.19 9.22 12.11-0.8 10.71 18.07 21.48 18.96 3.21-15.81-12.42-33.37-29.67-28.18m-462.9 8.57c-13.4 2.66-23.77 8.29-29.16 21.71 9.86-6.72 21.44-13.02 29.16-21.71m456.4 0.15c9.02 8.24 19.46 14.99 29.7 21.56-6.51-12.14-15.15-20.52-29.7-21.56m-514.8 2.04c-12.52 6.88-21.46 20.87-22.61 35.27 11.24-3.43 14.8-20.41 23.8-25.34-1.36 10.14-10.68 17.39-15.78 25.67 12.14-4.58 19.44-18.13 21.82-30.29 2.83-5.27-4.2-6.54-7.23-5.31m568.9-0.04c-5.87 11.96 6.67 30.51 19.4 35.62-5.03-8.28-14.39-15.51-15.73-25.65 8.98 5.01 12.55 21.78 23.81 25.36-1.77-14.48-11.42-34.28-27.48-35.33m-498.8 6.27c-9.63 12.56-23.56 21.34-37.41 27.5 12.11 2.96 33.05-2.12 35.92-17.83-0.09-2.54 6.52-12.33 1.49-9.67m431.6-0.87c0.4 20.58 22.37 33.37 39.47 28.38-15.01-5.83-28.13-17.05-39.47-28.38m-431.4 21.11c-1.61 4.11-2.83 8.36-4.12 12.57-4.09 0.98-13.54-2.95-12.59 4.06 4.61 6.77 14.04 5.04 21.04 7.08-0.11-8 5.44-19.07-4.33-23.71m432.4-0.12c-8.27 5.88-2.88 15.64-3.43 23.68 7.03-1.71 16.39-0.44 21.09-6.92 0.94-7.02-8.51-3.09-12.6-4.07-1.65-4.21-1.54-9.56-5.06-12.69m-437.7 3.72c-2.59 1.79-5.07 3.73-7.58 5.62 4.59 3.03 9.95-3.02 7.58-5.62m443.4-0.4c-0.84 5.08 3.62 8.07 8.17 6.02-2.71-2.03-5.37-4.13-8.17-6.02m-489.4 27.4c-4.62 1.59-14.9 0.38-16.22 5.34 12.38-3.06 25.17-0.5 36.99 3.75 1.9 2.61-3.34 2.24-4.99 2.12-11.7-3.55-25.2-6.32-36.58-0.75 6.6 13.59 27.7 10.97 40.4 11.68 6.03-1.05 17.13-3.86 13.14-12.63-7.65-9.55-21.49-9.99-32.74-9.51m522.5 0.25c-8.73 1.16-23.6 5.07-18.94 16.82 13.45 9.92 31.32 4.39 46.14 0.79 3.82-0.4 5.45-4.25 6.79-7.33-12.98-8.34-28.44 1.96-42.11 0.03 9.81-7.98 26.97-5.5 37.74-6.03-7.15-5.34-20.17-4.99-29.62-4.28m-643.1 86.6c-13.33 5.44-23.04 17.84-26.75 31.61-0.68 3.46 2.39 8.24 6.28 6.7 12.18-5.93 22.24-17.6 23.73-31.4-6.07 6.88-11.22 20.1-20.67 23.28 3.5-9.65 18.26-20.25 17.41-30.19m776-0.21c3.1 11.06 11.19 19.8 18.38 28.45 1.35 1.34-0.68 2.93-1.99 2.08-7.15-6.7-13.44-14.96-17.83-23.24-0.32 11.54 10.45 25.44 22.29 30.93 3.67 2.24 7.49-2.19 6.98-5.77-3.26-14.44-13.9-27.46-27.83-32.45m-737.6 9.96c-7.21 12.73 11.12 27.71 10.7 39.64-8.32-8.46-13.81-22.39-16.18-33.57-2.02 14.82 4.03 38 20.22 45.61 9.42-0.23 9.47-11.6 7.45-18.36-4.79-11.42-8.56-30.09-22.19-33.32m698.8 0.17c-11.59 4.78-15.17 21.09-20.42 31.46-2.29 6.79-2.68 19.82 7.14 20 16.09-7.54 22.53-30.77 20.24-45.58-2.72 11.09-7.66 25.22-16.2 33.59-1.22-11.11 20.46-30.33 9.24-39.47m-724.5 22.39c-9.63 11.86-4.54 27.99-14.04 39.76 0.29 15.55-12.83 26.1-12.58 41.67 18.22-21.7 28.91-55.52 26.62-81.43m751.3-0.8c-1.16 29.05 8.48 59.66 26.93 82.12-0.36-15.18-11.7-25.93-12.74-40.88-8.64-12.71-4.83-28.78-14.19-41.24m-767.8 16.4c-19.16 4.26-27.47 30.6-12.15 43.61 7.22-8.79-4.68-22.2 5.93-29.13 2.58-3.16 11.07-11.45 6.22-14.48m783.8 0.02c-2.71 7.14 7.84 14.09 11.59 19.98 0.24 7.73-3.53 16.63 1.36 23.62 15.7-13.03 6.62-40.35-12.95-43.6m-764.9 4.88c-0.34 16.24-6.53 31.49-14.3 45.5 19.06-5.75 26.6-31.61 14.3-45.5m745.2-0.05c-9.62 16.88-2.85 38.92 15.86 45.65-8.94-13.77-12.34-31.79-15.86-45.65m-759.9 2.2c-3.13 7.67-14.53 12.08-10.72 21.9 1.13 3.71-2.57 10.3 1.17 11.61 2.2-10.88 9.4-26.14 9.55-33.51m774.8-0.63c3.73 11.4 8.25 22.35 10.9 34.11 5.42-10.19-0.46-26.5-10.9-34.11m-745.2 15.42c-5.42 2.53 1.34 9.18 0.76 13.41-3.27 2.59-6.86 4.76-10 7.53 6.45 7.66 15.91-0.54 22.88-3.32-3.24-6.42-5.58-16.29-13.64-17.62m716.1 0.11c-7.53 1.98-9.65 11.41-12.92 17.48 7.01 2.86 15.52 10.38 22.78 4.17-1.9-5.06-12.56-5.66-9.15-12.02 1.51-2.78 4.15-9.53-0.71-9.63m-722.1 6.8c-7.35 13.09 9.21 5.69 0 0m728.2 0.3c-7.49 8.45 8.92 9.86 0 0m-793.6 9.96c-12.88 10.51-8.48 32.49-1.48 45.89 6.69-9.99 0.17-25.12 3.8-36.49 5.69 7.76 2.96 22.46 2.92 31.07 6.11-8.86 7.53-36.39-5.24-40.47m856.9-0.17c-7.66 11.26-9.39 29.9-2.26 40.64-0.7-8.64-1.37-23.01 2.63-30.83 4.7 10.23-3.01 26.77 4.09 36.3 5.9-11.09 8.69-24.44 4.52-36.61 0.43-4.99-3.8-10.37-8.98-9.5m-787.9 26.36c-14.58 2.48-27.47 12.72-34.5 25.42 9.49-8.02 21.29-16.89 34.21-17.41-10.19 8.82-26.4 9.54-33.25 22.73-0.64 5.31 6.44 4.98 9.91 3.79 13.68-6.21 30.66-11.32 35.95-27.21 0.95-6.66-7.29-8.63-12.32-7.32m717-0.05c-5.15-0.61-9.25 4.98-6.77 9.63 6.78 14.28 22.65 19.38 36.07 25.15 3.2 1.06 10.04 0.98 9.11-4.01-6.65-13.54-23.15-13.69-33.21-22.71 12.82 0.7 24.95 8.99 34.21 17.41-7.83-13.66-22.89-25.97-39.41-25.47m-747.1 136.8c-6.33 0.76-2.5 8.26 1.18 9.96 7.34 9.53 20.57 8.82 28.58 17.1-12.82-0.7-24.96-9-34.21-17.41 8.08 14 23.94 26.99 41.06 25.27 6.15-0.25 7.26-8.16 3.75-12.12-9.32-12.61-25.17-20.64-40.36-22.8m777.9 0.08c-14.32 5.36-31.16 10.93-37.92 26.2-1.95 4.55 2.28 9.23 6.95 8.95 16.6 0.16 31.65-11.74 39.48-25.58-9.49 8.02-21.29 16.88-34.21 17.41 10.19-8.82 26.39-9.54 33.25-22.73 0.97-4.05-4.77-5.34-7.55-4.25m-818.3 15.2c-7.42 13.2-8.65 29.68-2.36 43.48 2.06 1.96 6.62 4.68 8.19 0.81 5.89-11.35 8.03-28.7 0.89-38.82 0.7 8.64 1.36 23.01-2.63 30.83-4.7-10.23 3-26.78-4.09-36.3m862.1 0.4c-5.07 10.86 0.11 24.65-3.06 36.14-5.69-7.77-2.96-22.46-2.92-31.07-7.14 10.13-4.99 27.47 0.9 38.82 1.56 3.87 6.13 1.15 8.18-0.82 6.41-13 5.41-32.6-3.1-43.07m-833.1 18.8c0.48 15.14 11.72 25.9 12.79 40.84 8.64 12.71 4.82 28.78 14.19 41.24 1.12-29.01-8.39-59.75-26.98-82.08m804.3 0.41c-17.64 22.8-27.76 52.71-26.32 81.67 9.62-12.4 5.26-28.8 14.47-41.19-0.58-14.2 14.17-28.23 11.85-40.48m-789.6 14.8c7.83 14.03 13.89 29.12 14.3 45.38 12.22-13.44 4.65-39.4-14.3-45.38m774.7 0.45c-18.78 5.83-25.68 31.59-13.65 45.15-0.3-15.88 8.23-33.41 13.65-45.15m-748.4 3.84c-6.13 0.03-7.71 5.36-0.94 7.48 10.92 2.66-2.73 12.5 3.86 16.95 8.09-1.35 10.3-11.42 13.67-17.62-5.33-2.61-10.7-5.82-16.59-6.81m721.2 0.16c-5.22 1.68-10.21 4.07-15.06 6.62 3.23 6.41 5.57 16.28 13.64 17.62 6.86-3.16-5.95-12.89 2.22-15.63 6.85-2.49 9.14-9.62-0.8-8.61m-765 2.77c-15.01 13.72-5.39 41.01 14.36 43.15 0.51-8.74-9.05-13.71-12.37-20.62-0.27-6.49 3.97-18.34-1.99-22.53m809.6-0.33c-4.95 6.98-0.84 15.87-1.29 23.55-4.07 6.43-12.8 11.46-12.39 19.93 20.01-2 29.56-30.48 13.68-43.48m-802.9 3.17c-3.59 11.87 1.06 26.01 11.7 34.05-4.51-10.77-7.34-24.28-11.7-34.05m796.1-0.09c-3.25 11.6-6.81 22.81-10.9 34.14 10.53-7.89 16.25-23.29 10.9-34.14m-763.9 3.59c-0.37 13.81 9.98 3.35 0 0m730.1 0.69c-3.55 1.22-3.72 7.45 0.61 7.59-1.1-1.55 4.44-10.37-0.61-7.59m-700 23.08c-15.42 8.2-21.85 30.65-19.51 45.4 2.71-11.1 7.66-25.22 16.2-33.59 1.82 8.47-9.21 15.68-10.08 24.84-2.56 5.24-5.49 18.82 4.45 13.53 9.68-13.03 22.12-30.01 16.41-47.32-2.24-1.1-4.78-4.16-7.47-2.86m670.5-0.18c-15.18 6.71-4.07 27.56 1.96 37.9 3.12 5.4 7.84 17.13 15.5 12.34 1.36-14.22-10.35-25.14-13.2-38.05 9.14 6.8 14.33 22.49 16.92 33.37 1.95-14.72-4.09-39.41-21.18-45.56m-746.4 22.9c-3.67 1.88-4.07 6.76-2.15 10.06 3.99 12.77 14.13 23.99 26.65 28.52-2.34-12.02-14.28-20.34-18.42-30.43 9.44 3.21 14.6 16.33 20.66 23.31-2.08-13.71-12.58-29.02-26.74-31.46m821 0.03c-11.01 5.38-20.18 15.29-23.06 27.4-4.85 4.74 1.45 4.88 1.58 2.25 2.9-8.29 9.66-14.26 15.29-20.71 0.83-2.02 4.77-1.06 3.06 1.13-7.19 8.64-15.28 17.39-18.38 28.45 13.8-4.73 23.53-17.47 27.7-31.15 1.02-3.61-2-8.97-6.19-7.37m-672.7 103.1c-8.35 3.33-21.91 0.79-24.9 11.56 12.98 8.34 28.43-1.97 42.11-0.03-9.81 7.98-26.97 5.49-37.74 6.03 10.35 6.29 27.08 6.16 39.49 1.85 6.24-1.3 13.02-7.77 9.07-14.39-7.79-6.1-18.65-6.18-28.03-5.02m512-0.05c-6.31 0.85-17.85 4.48-12.72 13.29 12.24 12.02 35.28 11.12 48.66 4.32-10.74 0.13-28.05 1.89-37.78-6.04 13.71-1.1 28.81 8.2 42.24 0.11-6.6-13.59-27.7-10.97-40.4-11.68m-461.4 29.34c-6.79 1.68-15.82 0.49-20.29 6.83-0.95 7.02 8.51 3.09 12.6 4.07 1.65 4.21 1.53 9.55 5.06 12.69 8.02-5.57 3.55-17.29 2.63-23.59m425.4-0.24c-0.07 8.09-4.82 17.99 3.43 23.89 3.38-3.29 3.4-8.51 5.02-12.75 4.08-0.98 13.53 2.95 12.59-4.06-4.61-6.77-14.04-5.05-21.04-7.08m-487.5 12.21c3.28 3.94 8.54 6.92 11.45 11.65 22.68 8.3 36.98 28.91 58.3 39.57-15.64-24.47-41.93-42.76-69.75-51.22m546.3 0.83c-25.99 9.95-51.06 26.66-65.81 50.39 21.1-11.32 36.24-31.21 58.79-40.12 1.24-4.45 16.01-11.86 7.02-10.27m-498.5 1.04c-4.83 0.54 4.23 4.51 5.91 6.43 0.29-3.6-1.68-7.75-5.91-6.43m39.82-0.06c-13.94 12.58-3.84 39.69 8.09 50.36-5.33-11.39-9.19-25.69-6.93-37.63 7.17 10.46 0.72 30.2 12.99 39.53 5.45-1.09 6.66-8.34 4.96-13.05-0.83-13.9-2.33-36.94-19.11-39.21m371.9 0.05c-10.95 5.07-14.34 19.41-15.46 30.52 0.99 7.36-4.85 17.24 3.76 21.85 13.02-8.43 6.89-29.11 13.68-39.66 2.16 11.9-1.66 26.22-6.92 37.61 9.27-6.94 12.68-20.74 14.62-31.94-0.35-6.74-0.12-19.89-9.68-18.38m41.45-0.16c-3.79-0.24-4.25 3.72-4.38 6.6 2.31-2.21 12.13-6.78 4.38-6.6m-535.3 0.99c1.11 14.17 9.72 26.72 21.06 34.84 3.54 1.72 11.35 1.18 8.82-4.81-1.81-12.57-9.82-25.49-21.75-30.33 5.03 8.28 14.39 15.51 15.72 25.65-9.03-5.05-12.36-21.65-23.85-25.35m609.6 0.12c-12.01 6.23-22.48 22.45-18.89 34.95 16.4 0.03 26.72-20.12 28.34-35.06-10.78 3.76-15.03 19.01-23.03 25.4-2.66-8.21 14.27-20.57 13.58-25.29m-554.4 0.67c13.93 6.99 28.53 17.24 39.63 29.13-1.25-20.76-20.28-32.19-39.63-29.13m490.8 0.34c-12.41 5.06-19.75 15.46-21.62 28.78 11.66-10.64 23.23-23.06 39.31-27.63-2.09-2.92-12.58-0.4-17.69-1.15m-494 14.62c3.72 5.02 7.34 10.1 10.61 15.44 5.72 3.37 13.01 2.81 18.84 6.28-8.44-8.63-19.38-15.04-29.45-21.72m514.6 0.28c-9.79 6.84-20.27 13.05-28.98 21.3 7.1-4.58 18.87-1.58 22.31-10.95 1.11-2.9 7.11-8.8 6.67-10.35m-521.1 2c-4.02 19.33 17.91 35.34 36.36 26.82-3.33-8.64-15.84-5.86-22.28-10.41-3.75-5.21-6.75-15.82-14.08-16.41m525.3 0.29c-4.85 4.53-8.37 10.16-11.2 16.12-6.47 4.28-18.87 2.18-22.18 10.34 12 3.92 29.71 2.35 33.83-11.82 1.13-4.21 7.48-15.72-0.45-14.64m-297.6 30.14c-11.97 2.77-21.91 10.71-28.71 20.71-4.17 3.75-10.03 9.77-5.79 15.57 15.56-1.24 21.87-18.95 34.16-24.66-5.45 12.03-18.04 20.64-27.72 27.61 15.24-3.91 30.16-13.69 36.45-28.62 2.61-5.6-2.44-12.38-8.39-10.61m69.87-0.12c-5.28 0.49-7.29 7.02-5.12 11.39 6.47 14.5 21.08 24.21 36.12 27.99-9.7-6.88-22.08-15.77-27.68-27.64 12.74 5.29 18.35 23.73 34.16 24.62 4.37-5.91-2.24-11.93-6.21-16.07-7.26-10.25-18.29-19.54-31.27-20.29m-33.41 5.94c-4.39 6.47-15.18 11.47-11.38 20.69 4.63-0.56 7.64-4.22 11.01-6.99 3.97 1.8 6.69 6.7 11.69 6.99 3.86-9.21-7.14-14.3-11.32-20.69m-231.3 8.04c-7.36-1.89-10.34 4.3-6.31 9.53 11.26 8.87 26.67 13.84 40.86 9.96-6.91-9.9-25.5-7.15-32.81-15.59 10.81 0.73 21.34 3.95 30.98 8.72-7.07-9.67-20.96-13.55-32.72-12.62m452.8 0.15c-7.98 2.47-18.48 4.56-22.89 12.46 9.67-4.69 20.15-8.17 31.01-8.71-7.43 8.44-25.79 5.69-32.89 15.58 12.17 3.45 25.63 0.08 36.12-6.62 4.7-1.56 7.99-7.08 6.01-11.78-5.6-1.59-11.6-1.41-17.36-0.93m-221.8 9.7c-13.09 6.39 14.65 4.96 0 0m-1.39 8.64c-9.18-1.15-16.89 6.31-22.5 11.98 15.9-4.82 32.57-4.71 48.48 0-6.28-6.92-15.48-14.01-25.98-11.98m-2.02 12.67c-13.43 2.2-27.22 1.29-39.87 7.52 14.64 7.64 28.19-4.29 43.2 1.13 15.33-5.04 28.69 5.57 44.06-0.91-14.98-5.96-31.39-7.57-47.39-7.74m-6.66 11c-7.02-1.16-9.06 3.54-0.51 3.64 9.33 6.63 19.82 0.25 28.15-2.37-7.63-3.4-18.69 1.77-27.64-1.27m-10.61 5.84c-3.63 3 3.43 7.34 6.05 9.02 11.34 10.73 30.25 4.9 37.32-7.59-6.65-4.59-15.39 2.53-22.65 4.54-6.66-2.6-13.26-7.09-20.72-5.97m-41.33 7.05c2.59 5.41 23.57 4.21 27.72 13.5-11.68-2.42-22.47-8.5-34.63-8.93 4.7 10.08 18.07 15.3 28.87 16.67 5.1 1.61 15.5 0.97 14.61-6.36-8.71-10.64-22.97-16.01-36.57-14.88m114.8 0.14c-10.16 2.19-21.02 6.54-26.86 15.45 0.55 6.97 9.47 7.34 14.66 5.49 10.87-1.2 24.36-6.3 29.06-16.5-12.01-0.27-24.26 8.06-34.54 8.11 7.09-6.5 18.82-9.22 28.55-11.14-1.21-3.11-7.51-1.03-10.87-1.41zm38.2-896.1c12.1-0.15 22.64 6.77 32.85 12.37 8.47 4.39 2.04 17.95 10.82 22.24 8.82 7.67 22.47 5.4 27.76-5.39 14.43-3.85 32.99-0.29 44.18 10.46 5.68 4.97 5.92 16.23-1.95 19.13-17.71 7.44-39.15 0.46-52.37-12.84-3.86-4.31-9.87-1.42-14.33-3.43-8.82-9.22-22.29-1.28-33.09-5.55-11.48-4.49-26.2-9.79-28.95-23.41-1.23-8.64 7.36-13.76 15.08-13.58m-4.46 6.89c-5.06 0.81-8.04 7.01-4.48 11.2 9.73 10.25 25.73 17.25 39.09 14.5-9.95-5.2-23.55-9.47-34.4-15.14-0.05-1.06 0.29-1.99 1.01-2.79 11.62 4.57 23.57 8.25 35.37 12.35 2.81 0.81 1.32-3.7 0.12-4.81-9.4-9.61-22.6-17.25-36.6-15.31m81.91 28.21c-2.5 0.45-7.23 0.76-7.63 3.46 10.97 6.52 26.88 5.91 36.7 13.24-11.27 0.45-25.39-4.12-37.67-7.02 8.02 9.97 23.88 13.16 36.76 12.28 6.12 1.33 11.67-6.56 7.08-11.62-8.62-9.47-22.9-12.07-35.24-10.34zm-261.4-35.07c21.6-4.07 21.77 25.14 3.93 29.85-14.57 13.23-36.07 2.23-50.45 13.48-11.8-2.65-18.04 10.16-28.03 13.75-11.6 4.05-25.08 7.94-36.71 1.67-6.86-2.49-8.1-12.41-3.35-17.44 8.78-11.36 24.48-12.55 37.68-14.13 10.46-2.16 13.08 14.3 23.73 11.94 13.04 0.35 18.14-11.47 18.61-22.55 8.64-9.4 22.3-14.04 34.59-16.57m-3.64 7.06c-10.41 2.96-24.99 8.59-27.61 19.98 12.47-3.22 24.68-8.05 36.87-12.39 0.74 0.78 1.07 1.7 1.01 2.77-10.84 5.67-24.45 9.94-34.39 15.14 13.74 2.77 30.54-4.67 39.94-15.73 3.76-9.63-9.35-12.48-15.82-9.77m-86.65 28.16c-7.51 1.59-15.88 4.39-20.48 10.94-3.51 4.67 1.27 11.71 6.77 10.87 13.1 0.34 29.35-1.89 37.54-12.28-12.34 2.84-26.26 7.59-37.67 7.02 9.6-7.76 27.25-6.09 36.92-14.06-6.86-4.21-15.42-3.26-23.08-2.49z"/>
</svg>
